<mxfile host="app.diagrams.net" modified="2023-11-23T12:39:45.265Z" agent="Mozilla/5.0 (Windows NT 10.0; Win64; x64) AppleWebKit/537.36 (KHTML, like Gecko) Chrome/119.0.0.0 Safari/537.36 Edg/119.0.0.0" etag="L8bwWmKYsXe000IuybOm" version="21.7.2" type="github">
  <diagram name="Page-1" id="4DINRk2LaHxPd33yMJ1C">
    <mxGraphModel dx="1112" dy="681" grid="1" gridSize="10" guides="1" tooltips="1" connect="1" arrows="1" fold="1" page="1" pageScale="1" pageWidth="850" pageHeight="1100" math="0" shadow="0">
      <root>
        <mxCell id="0" />
        <mxCell id="1" parent="0" />
        <mxCell id="z2qyfkpqwB943ycXuCiq-10" value="" style="rounded=0;whiteSpace=wrap;html=1;fillColor=none;" vertex="1" parent="1">
          <mxGeometry x="110" y="120" width="600" height="465" as="geometry" />
        </mxCell>
        <mxCell id="z2qyfkpqwB943ycXuCiq-1" value="Pult 160x80" style="rounded=0;whiteSpace=wrap;html=1;fillColor=#000000;strokeColor=#6b6b6b;strokeWidth=3;fontColor=#FFFFFF;rotation=-90;" vertex="1" parent="1">
          <mxGeometry x="70" y="160" width="160" height="80" as="geometry" />
        </mxCell>
        <mxCell id="z2qyfkpqwB943ycXuCiq-3" value="Pult 160x80" style="rounded=0;whiteSpace=wrap;html=1;fillColor=#000000;strokeColor=#6b6b6b;strokeWidth=3;fontColor=#FFFFFF;" vertex="1" parent="1">
          <mxGeometry x="330" y="120" width="160" height="80" as="geometry" />
        </mxCell>
        <mxCell id="z2qyfkpqwB943ycXuCiq-4" value="Pult 160x80" style="rounded=0;whiteSpace=wrap;html=1;fillColor=#000000;strokeColor=#6b6b6b;strokeWidth=3;fontColor=#FFFFFF;rotation=0;" vertex="1" parent="1">
          <mxGeometry x="500" y="120" width="160" height="80" as="geometry" />
        </mxCell>
        <mxCell id="z2qyfkpqwB943ycXuCiq-5" value="Pult 160x80" style="rounded=0;whiteSpace=wrap;html=1;fillColor=#000000;strokeColor=#6b6b6b;strokeWidth=3;fontColor=#FFFFFF;rotation=90;" vertex="1" parent="1">
          <mxGeometry x="590" y="320" width="160" height="80" as="geometry" />
        </mxCell>
        <mxCell id="z2qyfkpqwB943ycXuCiq-7" value="Alex&lt;br&gt;36x70" style="rounded=0;whiteSpace=wrap;html=1;fillColor=#000000;strokeColor=#6b6b6b;strokeWidth=3;fontColor=#FFFFFF;" vertex="1" parent="1">
          <mxGeometry x="280" y="120" width="40" height="70" as="geometry" />
        </mxCell>
        <mxCell id="z2qyfkpqwB943ycXuCiq-8" value="Alex&lt;br&gt;36x70" style="rounded=0;whiteSpace=wrap;html=1;fillColor=#000000;strokeColor=#6b6b6b;strokeWidth=3;fontColor=#FFFFFF;" vertex="1" parent="1">
          <mxGeometry x="670" y="120" width="40" height="70" as="geometry" />
        </mxCell>
        <mxCell id="z2qyfkpqwB943ycXuCiq-12" value="" style="rounded=0;whiteSpace=wrap;html=1;" vertex="1" parent="1">
          <mxGeometry x="650" y="525" width="60" height="60" as="geometry" />
        </mxCell>
        <mxCell id="z2qyfkpqwB943ycXuCiq-13" value="" style="rounded=0;whiteSpace=wrap;html=1;" vertex="1" parent="1">
          <mxGeometry x="590" y="525" width="60" height="60" as="geometry" />
        </mxCell>
        <mxCell id="z2qyfkpqwB943ycXuCiq-14" value="" style="rounded=0;whiteSpace=wrap;html=1;" vertex="1" parent="1">
          <mxGeometry x="530" y="525" width="60" height="60" as="geometry" />
        </mxCell>
        <mxCell id="z2qyfkpqwB943ycXuCiq-15" value="" style="rounded=0;whiteSpace=wrap;html=1;" vertex="1" parent="1">
          <mxGeometry x="470" y="525" width="60" height="60" as="geometry" />
        </mxCell>
        <mxCell id="z2qyfkpqwB943ycXuCiq-17" value="DO og KjÃ¸kken" style="rounded=0;whiteSpace=wrap;html=1;" vertex="1" parent="1">
          <mxGeometry x="110" y="450" width="280" height="135" as="geometry" />
        </mxCell>
        <mxCell id="z2qyfkpqwB943ycXuCiq-18" value="Skuffeseksjon&lt;br&gt;36x70" style="rounded=0;whiteSpace=wrap;html=1;fillColor=#000000;strokeColor=#6b6b6b;strokeWidth=3;fontColor=#FFFFFF;rotation=-90;" vertex="1" parent="1">
          <mxGeometry x="355" y="390" width="43.75" height="66.25" as="geometry" />
        </mxCell>
        <mxCell id="z2qyfkpqwB943ycXuCiq-19" value="HP 67700" style="rounded=0;whiteSpace=wrap;html=1;fillColor=#000000;strokeColor=#6b6b6b;strokeWidth=3;fontColor=#FFFFFF;rotation=90;" vertex="1" parent="1">
          <mxGeometry x="346.88" y="330" width="60" height="70" as="geometry" />
        </mxCell>
      </root>
    </mxGraphModel>
  </diagram>
</mxfile>
